<svg width="12" height="8" viewBox="0 0 12 8" fill="none" xmlns="http://www.w3.org/2000/svg">
<rect width="12" height="8" fill="#F5F5F5"/>
<g clip-path="url(#clip0_0_1)">
<rect width="1440" height="9920" transform="translate(-753 -1346)" fill="white"/>
<rect x="-753" y="-466" width="1440" height="9040" fill="white"/>
<rect x="-18" y="-18" width="48" height="48" rx="24" fill="#171B1B"/>
<path fill-rule="evenodd" clip-rule="evenodd" d="M1.5 8L0 6.3696L6 0L12 6.3696L10.5 8L6 3.2L1.5 8Z" fill="#F5D3AB"/>
<path fill-rule="evenodd" clip-rule="evenodd" d="M-464.352 -118.158C-489.952 -104.225 -514.795 -88.9469 -538.778 -72.3863L-539.278 -73.1361C-537.781 -74.1615 -536.283 -75.1839 -534.784 -76.2063L-534.723 -76.2479L-534.712 -76.2555C-531.281 -78.5957 -527.85 -80.9362 -524.442 -83.315C-509.792 -93.5605 -494.402 -102.616 -479.013 -111.671L-479.012 -111.672L-477.331 -112.661C-465.535 -119.537 -452.953 -124.967 -439.86 -128.836C-427.574 -132.537 -415.813 -137.596 -404.049 -142.655L-404.049 -142.655L-404.048 -142.655L-404.044 -142.657L-404.04 -142.659L-404.036 -142.661L-404.032 -142.662L-404.028 -142.664L-404.024 -142.666L-404.02 -142.668L-404.016 -142.669L-404.012 -142.671L-404.007 -142.673L-404.003 -142.674L-403.999 -142.676L-403.995 -142.678L-403.991 -142.68L-403.987 -142.681L-403.984 -142.683C-400.834 -144.037 -397.685 -145.392 -394.526 -146.72C-365.748 -158.819 -336.463 -169.481 -306.045 -176.738C-305.367 -176.899 -304.674 -177.094 -303.978 -177.29C-302.215 -177.787 -300.437 -178.287 -298.852 -178.258C-296.621 -178.216 -294.412 -178.463 -292.202 -178.71C-288.978 -179.07 -285.751 -179.431 -282.448 -178.896C-281.097 -178.678 -279.713 -178.841 -278.3 -179.007L-278.299 -179.008C-276.612 -179.206 -274.884 -179.41 -273.123 -178.976C-266.389 -177.322 -259.541 -177.394 -252.683 -177.466L-252.683 -177.466C-250.599 -177.488 -248.514 -177.51 -246.431 -177.484C-232.647 -177.308 -218.6 -177.111 -205.726 -171.813C-182.609 -162.3 -160.428 -150.77 -141.997 -133.526C-122.924 -115.681 -109.884 -94.2046 -104.123 -68.3158C-103.713 -66.4714 -103.282 -64.634 -102.852 -62.7994L-102.852 -62.7988L-102.851 -62.7964C-100.682 -53.5435 -98.5286 -44.3603 -99.0524 -34.7062C-99.4935 -28.7312 -100.332 -22.7916 -101.563 -16.9269C-101.994 -14.6545 -102.32 -12.3681 -102.645 -10.0814L-102.645 -10.0813C-103.329 -5.27319 -104.014 -0.463652 -105.678 4.22087C-109.074 13.7869 -112.53 23.2706 -116.837 32.4982C-121.362 42.1857 -119.41 52.038 -116.216 61.8587C-114.824 66.1391 -113.266 70.3625 -111.709 74.5862L-111.708 74.5867C-108.85 82.3373 -105.991 90.0884 -104.157 98.1934C-96.2304 133.209 -100.491 166.532 -116.447 198.804C-122.241 210.525 -128.84 221.745 -135.439 232.964C-138.012 237.339 -140.585 241.714 -143.11 246.118C-147.152 253.167 -151.461 260.068 -155.768 266.967L-155.768 266.967L-155.768 266.968L-155.768 266.968C-160.468 274.495 -165.165 282.018 -169.511 289.727C-188.338 323.105 -218.913 340.332 -253.204 352.712C-268.427 358.207 -284.401 360.622 -300.459 362.557C-303.174 362.885 -305.887 363.23 -308.6 363.575C-323.405 365.458 -338.187 367.339 -353.219 366.331C-385.205 364.182 -414.529 354.941 -440.01 334.894C-452.281 325.241 -464.541 315.57 -474.586 303.538C-484.565 291.855 -492.381 278.488 -497.669 264.063C-500.929 254.946 -503.538 245.638 -506.147 236.331L-506.147 236.331L-506.147 236.331L-506.147 236.33L-506.147 236.33L-506.147 236.33L-506.147 236.329L-506.147 236.329L-506.147 236.329L-506.148 236.328L-506.148 236.328L-506.148 236.327L-506.148 236.327L-506.148 236.327L-506.148 236.326L-506.148 236.326L-506.148 236.326L-506.148 236.325L-506.148 236.325L-506.149 236.325L-506.149 236.324L-506.149 236.324L-506.149 236.323L-506.149 236.323L-506.149 236.323L-506.149 236.322C-508.608 227.548 -511.067 218.775 -514.072 210.166C-515.275 206.781 -516.775 203.509 -518.554 200.388C-520.277 197.317 -521.842 194.156 -523.407 190.995C-526.057 185.642 -528.707 180.29 -532.124 175.379C-535.336 170.763 -538.676 166.235 -542.016 161.707L-542.016 161.707L-542.017 161.706L-542.017 161.706L-542.018 161.705L-542.018 161.704L-542.018 161.704L-542.019 161.703L-542.019 161.703L-542.02 161.702L-542.02 161.701L-542.021 161.701L-542.021 161.7L-542.021 161.7L-542.022 161.699L-542.022 161.698L-542.023 161.698L-542.023 161.697L-542.024 161.697L-542.024 161.696L-542.025 161.695L-542.025 161.695L-542.025 161.694L-542.026 161.694L-542.026 161.693L-542.027 161.692C-545.518 156.959 -549.009 152.225 -552.355 147.392C-562.269 132.877 -570.627 117.359 -577.292 101.095C-583.65 85.8166 -588.72 70.0327 -592.446 53.9075C-594.755 44.3032 -595.88 34.4515 -595.797 24.5713C-595.779 23.4184 -595.874 22.2264 -595.971 21.0205L-595.971 21.0188L-595.971 21.0183L-595.971 21.0179L-595.971 21.0175L-595.971 21.0171L-595.971 21.0167L-595.971 21.0163L-595.971 21.0159L-595.971 21.0155L-595.971 21.0151L-595.971 21.0146L-595.971 21.0142L-595.971 21.0138L-595.971 21.0134L-595.971 21.013L-595.971 21.0126L-595.971 21.0122L-595.971 21.0118L-595.971 21.0114L-595.971 21.011L-595.971 21.0106C-596.262 17.3657 -596.563 13.5947 -593.797 10.3903C-593.291 -3.84301 -586.297 -15.3421 -579.306 -26.8355C-577.787 -29.3332 -576.268 -31.8307 -574.816 -34.3559C-572.472 -38.4305 -569.588 -42.1225 -566.707 -45.8106L-566.706 -45.8114L-566.706 -45.8121L-566.705 -45.8129L-566.704 -45.8137L-566.704 -45.8144L-566.703 -45.8152L-566.703 -45.8159L-566.702 -45.8167L-566.701 -45.8175L-566.701 -45.8182L-566.7 -45.819C-565.2 -47.74 -563.7 -49.66 -562.278 -51.6327C-559.981 -54.8178 -557.014 -57.0013 -554.061 -59.1746C-552.663 -60.2034 -551.268 -61.23 -549.949 -62.3594C-540.324 -70.6119 -529.718 -77.5689 -519.121 -84.5201C-517.393 -85.6536 -515.665 -86.7869 -513.942 -87.9257C-497.804 -98.5961 -481.114 -108.386 -464.352 -118.158ZM-231.019 -61.1833L-231.02 -61.1808C-237.555 -49.2392 -244.156 -37.1783 -248.798 -23.4335C-238.105 -38.0196 -225.217 -64.3711 -225.759 -70.9006C-227.48 -67.65 -229.247 -64.4219 -231.018 -61.185L-231.019 -61.1833ZM-244.268 10.8552L-246.043 10.1219C-244.854 7.18722 -243.708 4.23413 -242.561 1.28073C-238.563 -9.02185 -234.562 -19.3279 -228.753 -28.87C-232.63 -15.155 -238.411 -2.23459 -244.193 10.6875L-244.268 10.8552ZM-167.464 123.018C-168.674 129.38 -170.449 135.606 -172.222 141.827C-174.462 149.685 -176.7 157.537 -177.795 165.648C-171.844 152.161 -168.345 137.725 -167.464 123.018ZM-150.055 11.8144C-152.328 5.68299 -148.988 -14.1961 -145.008 -17.9973C-145.628 -14.5528 -146.065 -11.0753 -146.505 -7.56647C-147.303 -1.2066 -148.113 5.25652 -150.055 11.8144ZM-313.656 124.389C-307.464 118.425 -296.297 98.2696 -295.554 91.6871L-313.656 124.389ZM-373.175 350.005C-382.361 346.373 -391.955 343.868 -401.748 342.545C-392.699 346.58 -383.046 349.1 -373.175 350.005ZM-166.47 195.964C-165.905 194.665 -165.325 193.37 -164.745 192.075C-161.066 183.862 -157.386 175.649 -157.637 166.253C-159.329 172.259 -161.137 178.229 -162.945 184.201L-162.945 184.201L-162.945 184.202L-162.945 184.202L-162.945 184.203L-162.945 184.203L-162.945 184.203L-162.945 184.204L-162.946 184.204L-162.946 184.205L-162.946 184.205L-162.946 184.206L-162.946 184.206L-162.946 184.206L-162.946 184.207L-162.946 184.207L-162.947 184.208L-162.947 184.208L-162.947 184.209L-162.947 184.209L-162.948 184.214C-164.133 188.127 -165.318 192.04 -166.47 195.964ZM-226.527 -14.4915C-225.797 -16.1224 -225.068 -17.7534 -224.35 -19.3887C-226.904 -8.88661 -231.358 0.900524 -236.043 10.5986C-233.845 1.86793 -230.186 -6.3118 -226.527 -14.4915ZM-178.233 294.243C-181.746 299.169 -185.595 303.848 -189.751 308.247C-192.605 311.234 -195.609 314.078 -198.613 316.922L-198.613 316.923C-199.925 318.164 -201.236 319.406 -202.535 320.66C-191.683 313.817 -180.775 301.891 -178.233 294.243ZM-194.536 211.017C-194.334 215.783 -203.716 233.488 -210.207 240.605C-209.161 238.567 -208.054 236.552 -206.943 234.533C-205.378 231.686 -203.807 228.829 -202.397 225.882C-200.776 222.485 -198.969 219.175 -197.087 215.728C-196.248 214.192 -195.394 212.628 -194.536 211.017ZM-254.353 -51.314L-255.225 -51.8063C-259.472 -47.3117 -261.878 -41.7777 -264.284 -36.2435C-264.697 -35.2931 -265.11 -34.3428 -265.533 -33.3978L-264.694 -32.926L-254.353 -51.314ZM-338.118 143.267L-350.995 165.882C-348.026 157.687 -343.969 149.926 -338.934 142.806L-338.68 142.95L-338.48 143.063C-338.359 143.131 -338.239 143.199 -338.118 143.267ZM-353.032 138.984C-356.579 141.544 -364.13 155.623 -364.833 160.07L-353.032 138.984ZM-226.388 9.89585L-227.447 9.44035L-219.813 -9.6926C-221.009 -2.79168 -223.643 3.56621 -226.388 9.89585ZM-166.907 33.2742L-166.906 33.2703L-166.905 33.2766L-166.907 33.2742ZM-164.794 14.1314C-167.089 20.2361 -167.816 26.8167 -166.906 33.2703L-164.794 14.1314ZM-121.646 -30.2294L-123.241 -49.7984L-123.239 -49.796C-121.233 -43.4803 -120.688 -36.7901 -121.646 -30.2294ZM-322.456 247.132L-321.575 247.836L-311.584 235.266L-312.335 234.667C-313.621 236.591 -315.226 238.259 -316.83 239.928C-318.95 242.134 -321.07 244.339 -322.457 247.131L-322.456 247.132ZM-371.63 131.671L-371.627 131.669L-371.628 131.667L-371.63 131.671ZM-378.893 143.31C-377.487 138.884 -374.989 134.881 -371.63 131.671C-371.915 132.282 -372.192 132.901 -372.469 133.52C-374.068 137.087 -375.684 140.692 -378.893 143.31ZM-113.091 -11.2708C-111.227 -14.5102 -110.306 -18.2047 -110.432 -21.9369C-110.432 -22.0413 -110.423 -22.1504 -110.415 -22.2601C-110.375 -22.763 -110.335 -23.2795 -111.041 -23.4161C-111.901 -23.5825 -112.084 -22.8803 -112.134 -22.2858C-112.405 -19.4324 -112.645 -16.5769 -112.885 -13.7223L-112.885 -13.7212L-112.885 -13.7173C-112.954 -12.9021 -113.022 -12.087 -113.091 -11.2719L-113.091 -11.2708ZM-140.058 171.59L-140.057 171.588L-140.058 171.587L-140.058 171.59ZM-140.058 171.59C-140.205 172.043 -140.353 172.496 -140.502 172.948C-141.791 176.876 -143.072 180.776 -143.151 184.925C-140.465 180.842 -140.188 176.207 -140.058 171.59ZM-131.321 -26.0822C-129.838 -31.0213 -130.099 -37.6955 -131.574 -40.4844L-131.321 -26.0822ZM-551.147 -31.6624L-551.154 -31.6554L-551.15 -31.658L-551.147 -31.6624ZM-551.147 -31.6624L-540.659 -41.5046C-544.967 -39.2129 -548.588 -35.8154 -551.147 -31.6624ZM-236.728 -39.362C-239.397 -35.7326 -241.494 -31.7165 -242.945 -27.4537C-240.33 -31.1163 -238.237 -35.1242 -236.728 -39.362ZM-465.233 296.294C-464.941 297.109 -464.652 297.913 -464.171 298.581L-464.185 298.571C-466.305 297.007 -468.43 295.438 -468.773 292.225C-466.447 292.906 -465.832 294.623 -465.233 296.294ZM-302.501 163.03C-305.037 165.838 -307.035 169.089 -308.395 172.618C-305.876 169.797 -303.879 166.55 -302.501 163.03ZM-466.932 -113.425L-466.842 -113.263L-476.714 -107.791L-476.804 -107.953L-466.932 -113.425Z" fill="#F9BF77"/>
</g>
<defs>
<clipPath id="clip0_0_1">
<rect width="1440" height="9920" fill="white" transform="translate(-753 -1346)"/>
</clipPath>
</defs>
</svg>
